# Blender v2.64 (sub 0) OBJ File: ''
# www.blender.org
mtllib ultimaker2_platform.mtl
o Ultimaker2_Platform
v -128.500000 -1.625746 -109.839317
v -128.500000 -5.625746 -109.839317
v -128.500000 -1.625746 109.160683
v -128.500000 -5.625746 109.160683
v 123.500000 -1.625746 114.160683
v -123.500000 -1.625746 114.160683
v 123.500000 -5.625746 114.160683
v -123.500000 -5.625746 114.160683
v 128.500000 -5.625746 109.160683
v 128.500000 -5.625746 -109.839317
v 128.500000 -1.625746 109.160683
v 128.500000 -1.625746 -109.839317
v -123.500000 -1.625746 -114.839317
v 123.500000 -1.625746 -114.839317
v -123.500000 -5.625746 -114.839317
v 123.500000 -5.625746 -114.839317
v 128.329636 -1.625746 110.454781
v 124.794098 -1.625746 -114.668938
v 128.329636 -1.625746 -111.133415
v 127.830124 -1.625746 -112.339317
v 127.035538 -1.625746 -113.374855
v 126.000000 -1.625746 -114.169441
v -124.794098 -1.625746 -114.668938
v -126.000000 -1.625746 -114.169441
v -127.035538 -1.625746 -113.374855
v -127.830124 -1.625746 -112.339317
v -128.329636 -1.625746 -111.133415
v -128.329636 -1.625746 110.454781
v -127.830124 -1.625746 111.660683
v -127.035538 -1.625746 112.696220
v -126.000000 -1.625746 113.490807
v -124.794098 -1.625746 113.990318
v 124.794098 -1.625746 113.990318
v 126.000000 -1.625746 113.490807
v 127.035538 -1.625746 112.696220
v 127.830124 -1.625746 111.660683
v -124.794098 -5.625746 -114.668938
v -126.000000 -5.625746 -114.169441
v 124.794098 -5.625746 -114.668938
v 126.000000 -5.625746 -114.169441
v 127.035538 -5.625746 -113.374855
v 127.830124 -5.625746 -112.339317
v 128.329636 -5.625746 -111.133415
v 128.329636 -5.625746 110.454781
v 127.830124 -5.625746 111.660683
v 127.035538 -5.625746 112.696220
v 126.000000 -5.625746 113.490807
v 124.794098 -5.625746 113.990318
v -124.794098 -5.625746 113.990318
v -126.000000 -5.625746 113.490807
v -127.035538 -5.625746 112.696220
v -127.830124 -5.625746 111.660683
v -128.329636 -5.625746 110.454781
v -128.329636 -5.625746 -111.133415
v -127.830124 -5.625746 -112.339317
v -127.035538 -5.625746 -113.374855
v 100.000000 -14.375748 -157.599319
v -100.000000 -14.375748 -157.599319
v 100.000000 47.335377 -157.599319
v -100.000000 47.335377 -157.599319
v 100.000000 45.242390 -151.499329
v -100.000000 45.242390 -151.499329
v 100.000000 -8.375746 -151.499329
v -100.000000 -8.375746 -151.499329
v -100.000000 47.241886 -153.454224
v -100.000000 47.164173 -152.945465
v 100.000000 47.241886 -153.454224
v 100.000000 47.164173 -152.945465
v -100.000000 46.959217 -152.473389
v 100.000000 46.959217 -152.473389
v -100.000000 46.640568 -152.069244
v 100.000000 46.640568 -152.069244
v -100.000000 46.229343 -151.759796
v 100.000000 46.229343 -151.759796
v -100.000000 45.752766 -151.565536
v 100.000000 45.752766 -151.565536
v 100.000000 -8.893385 -151.431168
v 100.000000 -9.375746 -151.231369
v 100.000000 -9.789961 -150.913528
v 100.000000 -10.107801 -150.499329
v 100.000000 -10.307601 -150.016953
v 100.000000 -14.375748 -146.215729
v 100.000000 -10.375747 -149.499329
v 100.000000 -10.375747 -146.215729
v -100.000000 -10.375747 -149.499329
v -100.000000 -10.307601 -150.016953
v -100.000000 -10.107801 -150.499329
v -100.000000 -9.789961 -150.913528
v -100.000000 -9.375746 -151.231369
v -100.000000 -8.893385 -151.431168
v -100.000000 -10.375747 -146.215729
v -100.000000 -14.375748 -146.215729
v -100.142532 -10.375747 -145.030396
v 100.142532 -10.375747 -145.030396
v 100.562004 -10.375747 -143.912643
v -100.562004 -10.375747 -143.912643
v 101.234505 -10.375747 -142.926193
v -101.234505 -10.375747 -142.926193
v 128.500000 -10.375747 -109.088753
v -128.500000 -10.375747 -109.088753
v -123.500000 -10.375747 114.160683
v -128.500000 -10.375747 109.160683
v -124.794098 -10.375747 113.990318
v -126.000000 -10.375747 113.490807
v -126.771690 -10.375747 -113.694099
v -127.713188 -10.375747 -112.313072
v -128.300446 -10.375747 -110.748222
v -128.329636 -10.375747 110.454781
v -127.830124 -10.375747 111.660683
v -127.035538 -10.375747 112.696220
v 123.500000 -10.375747 114.160683
v 128.500000 -10.375747 109.160683
v 124.794098 -10.375747 113.990318
v 126.000000 -10.375747 113.490807
v 127.035538 -10.375747 112.696220
v 127.830124 -10.375747 111.660683
v 128.329636 -10.375747 110.454781
v 126.771690 -10.375747 -113.694099
v 128.300446 -10.375747 -110.748222
v 127.713188 -10.375747 -112.313072
v -100.142532 -14.375748 -145.030396
v 100.142532 -14.375748 -145.030396
v 100.562004 -14.375748 -143.912643
v -100.562004 -14.375748 -143.912643
v 101.234505 -14.375748 -142.926193
v -101.234505 -14.375748 -142.926193
v 128.500000 -14.375748 -109.088753
v -128.500000 -14.375748 -109.088753
v -123.500000 -14.375748 114.160683
v -128.500000 -14.375748 109.160683
v -124.794098 -14.375748 113.990318
v -126.000000 -14.375748 113.490807
v 126.771690 -14.375748 -113.694099
v 128.300446 -14.375748 -110.748222
v 127.713188 -14.375748 -112.313072
v 123.500000 -14.375748 114.160683
v 128.500000 -14.375748 109.160683
v 128.329636 -14.375748 110.454781
v 127.830124 -14.375748 111.660683
v 127.035538 -14.375748 112.696220
v 126.000000 -14.375748 113.490807
v 124.794098 -14.375748 113.990318
v -127.035538 -14.375748 112.696220
v -127.830124 -14.375748 111.660683
v -128.329636 -14.375748 110.454781
v -128.300446 -14.375748 -110.748222
v -127.713188 -14.375748 -112.313072
v -126.771690 -14.375748 -113.694099
v 100.000000 46.640568 -152.069244
v 100.000000 46.229343 -151.759796
v -124.794098 -5.625746 -114.668938
v -126.000000 -5.625746 -114.169441
v -127.035538 -5.625746 -113.374855
v 123.500000 -1.625746 114.160683
v -123.500000 -1.625746 114.160683
v 100.000000 45.752766 -151.565536
v -128.500000 -1.625746 109.160683
v -128.329636 -1.625746 110.454781
v 128.500000 -5.625746 109.160683
v 128.329636 -5.625746 110.454781
v -100.000000 46.229343 -151.759796
v -100.000000 45.752766 -151.565536
v -100.000000 46.640568 -152.069244
v -100.000000 47.241886 -153.454224
v -100.000000 47.164173 -152.945465
v 100.000000 47.241886 -153.454224
v 100.000000 47.164173 -152.945465
v 127.035538 -1.625746 112.696220
v 127.830124 -1.625746 111.660683
v 124.794098 -1.625746 113.990318
v 126.000000 -1.625746 113.490807
v 100.000000 46.959217 -152.473389
v 100.000000 47.335377 -157.599319
v 100.000000 47.335377 -157.599319
v 124.794098 -1.625746 -114.668938
v 126.000000 -1.625746 -114.169441
v -123.500000 -14.375748 114.160683
v -124.794098 -14.375748 113.990318
v 126.771690 -14.375748 -113.694099
v 127.713188 -14.375748 -112.313072
v -128.500000 -1.625746 -109.839317
v -128.329636 -1.625746 -111.133415
v -100.000000 46.959217 -152.473389
v -100.000000 -10.375747 -149.499329
v -100.000000 -10.375747 -146.215729
v 127.830124 -5.625746 -112.339317
v 128.329636 -5.625746 -111.133415
v -127.713188 -10.375747 -112.313072
v -128.300446 -10.375747 -110.748222
v 128.500000 -14.375748 -109.088753
v 128.300446 -14.375748 -110.748222
v 126.000000 -5.625746 -114.169441
v 127.035538 -5.625746 -113.374855
v -127.830124 -10.375747 111.660683
v -127.035538 -10.375747 112.696220
v -128.500000 -10.375747 -109.088753
v -128.500000 -10.375747 109.160683
v 128.500000 -14.375748 109.160683
v 128.329636 -14.375748 110.454781
v -100.000000 47.335377 -157.599319
v -100.000000 47.335377 -157.599319
v 128.500000 -5.625746 -109.839317
v 100.000000 45.242390 -151.499329
v 123.500000 -5.625746 114.160683
v -123.500000 -5.625746 114.160683
v -128.500000 -5.625746 109.160683
v -128.329636 -5.625746 110.454781
v 123.500000 -10.375747 114.160683
v 124.794098 -10.375747 113.990318
v -128.329636 -10.375747 110.454781
v 126.000000 -14.375748 113.490807
v 124.794098 -14.375748 113.990318
v 100.142532 -10.375747 -145.030396
v 100.562004 -10.375747 -143.912643
v 100.000000 -8.375746 -151.499329
v 100.000000 -8.893385 -151.431168
v 100.000000 -14.375748 -157.599319
v 100.000000 -14.375748 -157.599319
v 100.000000 -14.375748 -146.215729
v 127.035538 -5.625746 112.696220
v 126.000000 -5.625746 113.490807
v -128.500000 -5.625746 -109.839317
v -128.329636 -5.625746 -111.133415
v -123.500000 -1.625746 -114.839317
v 123.500000 -1.625746 -114.839317
v 128.329636 -1.625746 110.454781
v -126.000000 -1.625746 113.490807
v -124.794098 -1.625746 113.990318
v -100.000000 -14.375748 -146.215729
v -100.142532 -14.375748 -145.030396
v 124.794098 -5.625746 113.990318
v -100.000000 -8.375746 -151.499329
v -100.000000 -8.893385 -151.431168
v -101.234505 -10.375747 -142.926193
v -126.771690 -10.375747 -113.694099
v -100.000000 -14.375748 -157.599319
v -100.000000 -14.375748 -157.599319
v -123.500000 -10.375747 114.160683
v -124.794098 -10.375747 113.990318
v 127.830124 -14.375748 111.660683
v -126.000000 -1.625746 -114.169441
v -127.035538 -1.625746 -113.374855
v 127.830124 -10.375747 111.660683
v 128.329636 -10.375747 110.454781
v 100.000000 -10.375747 -149.499329
v 100.000000 -10.375747 -146.215729
v 100.000000 -9.789961 -150.913528
v 100.000000 -10.107801 -150.499329
v 124.794098 -5.625746 -114.668938
v -127.830124 -1.625746 111.660683
v 128.300446 -10.375747 -110.748222
v 127.713188 -10.375747 -112.313072
v 100.562004 -14.375748 -143.912643
v 101.234505 -14.375748 -142.926193
v 128.500000 -1.625746 109.160683
v -126.000000 -5.625746 113.490807
v -127.035538 -5.625746 112.696220
v -123.500000 -5.625746 -114.839317
v -124.794098 -1.625746 -114.668938
v 123.500000 -14.375748 114.160683
v -126.000000 -10.375747 113.490807
v 128.500000 -1.625746 -109.839317
v 128.329636 -1.625746 -111.133415
v -100.142532 -10.375747 -145.030396
v -100.562004 -10.375747 -143.912643
v -100.562004 -14.375748 -143.912643
v -101.234505 -14.375748 -142.926193
v -100.000000 -10.307601 -150.016953
v -127.830124 -5.625746 -112.339317
v 127.035538 -1.625746 -113.374855
v -127.830124 -5.625746 111.660683
v 127.830124 -1.625746 -112.339317
v 101.234505 -10.375747 -142.926193
v 126.771690 -10.375747 -113.694099
v -100.000000 -10.107801 -150.499329
v -100.000000 -9.789961 -150.913528
v 100.142532 -14.375748 -145.030396
v 127.035538 -10.375747 112.696220
v 128.500000 -10.375747 -109.088753
v 128.500000 -10.375747 109.160683
v 126.000000 -10.375747 113.490807
v -100.000000 -9.375746 -151.231369
v -128.500000 -14.375748 -109.088753
v -128.500000 -14.375748 109.160683
v -127.830124 -1.625746 -112.339317
v -128.300446 -14.375748 -110.748222
v -127.713188 -14.375748 -112.313072
v 100.000000 -10.307601 -150.016953
v -127.830124 -14.375748 111.660683
v -128.329636 -14.375748 110.454781
v -100.000000 45.242390 -151.499329
v -124.794098 -5.625746 113.990318
v -127.035538 -1.625746 112.696220
v -126.771690 -14.375748 -113.694099
v 127.830124 -5.625746 111.660683
v 100.000000 -9.375746 -151.231369
v -126.000000 -14.375748 113.490807
v -127.035538 -14.375748 112.696220
v 123.500000 -5.625746 -114.839317
v 127.035538 -14.375748 112.696220
vn -0.997833 0.000000 -0.065371
vn -0.997833 0.000000 0.065371
vn 0.065371 0.000000 0.997833
vn -0.065371 0.000000 0.997833
vn 0.997833 0.000000 0.065371
vn 0.997833 0.000000 -0.065371
vn -0.065401 0.000000 -0.997833
vn 0.065401 0.000000 -0.997833
vn 0.000000 0.999969 0.000000
vn 0.000000 1.000000 0.000000
vn 0.000000 -1.000000 0.000000
vn 0.000000 -0.999969 0.000000
vn 0.258797 0.000000 -0.965911
vn 0.499985 0.000000 -0.866024
vn 0.707083 0.000000 -0.707083
vn 0.866024 0.000000 -0.499985
vn 0.965911 0.000000 -0.258797
vn -0.965911 0.000000 -0.258797
vn -0.866024 0.000000 -0.499985
vn -0.707083 0.000000 -0.707083
vn -0.499985 0.000000 -0.866024
vn -0.258797 0.000000 -0.965911
vn -0.258797 0.000000 0.965911
vn -0.499985 0.000000 0.866024
vn -0.707083 0.000000 0.707083
vn -0.866024 0.000000 0.499985
vn -0.965911 0.000000 0.258797
vn 0.965911 0.000000 0.258797
vn 0.866024 0.000000 0.499985
vn 0.707083 0.000000 0.707083
vn 0.499985 0.000000 0.866024
vn 0.258797 0.000000 0.965911
vn 0.000000 0.000000 -1.000000
vn 0.000000 0.064455 0.997894
vn 0.000000 0.065401 0.997833
vn 0.000000 0.996185 0.086947
vn 0.000000 0.960875 0.276894
vn 0.000000 0.858394 0.512955
vn 0.000000 0.699057 0.715018
vn 0.000000 0.493454 0.869747
vn 0.000000 0.255165 0.966887
vn 1.000000 0.000000 0.000000
vn 0.999969 0.000000 0.000000
vn 0.998199 0.000000 -0.059786
vn 0.000000 0.997833 0.065401
vn 0.000000 0.965911 0.258797
vn 0.000000 0.865993 0.499985
vn 0.000000 0.707083 0.707083
vn 0.000000 0.499985 0.866024
vn 0.000000 0.258827 0.965911
vn -1.000000 0.000000 0.000000
vn -0.998199 0.000000 -0.059786
vn -0.999969 0.000000 0.000000
vn -0.791070 0.000000 -0.611682
vn -0.971465 0.000000 -0.237068
vn -0.887570 0.000000 -0.460616
vn -0.971465 0.000000 -0.237037
vn 0.791070 0.000000 -0.611682
vn 0.887570 0.000000 -0.460616
vn 0.971465 0.000000 -0.237068
vn 0.971465 0.000000 -0.237037
vn 0.000000 0.999725 0.022523
usemtl 
s 1
f 181//1 2//1 157//2
f 157//2 2//1 4//2
f 5//3 6//4 204//3
f 204//3 6//4 205//4
f 159//5 10//6 11//5
f 11//5 10//6 12//6
f 13//7 225//8 15//7
f 15//7 225//8 16//8
f 226//9 255//10 154//10
f 154//10 255//10 262//10
f 154//10 262//10 14//10
f 14//10 262//10 175//10
f 263//10 272//10 262//10
f 262//10 272//10 21//9
f 262//10 21//9 22//10
f 22//10 175//10 262//10
f 14//10 224//10 154//10
f 154//10 224//10 155//10
f 224//10 1//10 155//10
f 1//10 224//10 259//10
f 1//10 259//10 241//10
f 242//9 1//10 241//10
f 1//10 242//9 26//10
f 1//10 26//10 27//10
f 1//10 3//10 155//10
f 155//10 3//10 28//9
f 155//10 28//9 250//10
f 250//10 30//9 155//10
f 155//10 30//9 227//10
f 155//10 227//10 32//10
f 33//10 34//10 154//10
f 154//10 34//10 35//9
f 154//10 35//9 169//10
f 169//10 226//9 154//10
f 202//11 7//11 299//11
f 299//11 7//11 8//11
f 299//11 8//11 258//11
f 258//11 8//11 222//11
f 258//11 222//11 37//11
f 37//11 222//11 38//11
f 299//11 249//11 202//11
f 202//11 249//11 40//11
f 202//11 40//11 41//12
f 41//12 186//11 202//11
f 202//11 186//11 43//11
f 202//11 9//11 7//11
f 7//11 9//11 44//12
f 7//11 44//12 295//11
f 295//11 46//12 7//11
f 7//11 46//12 47//11
f 7//11 47//11 231//11
f 292//11 50//11 8//11
f 8//11 50//11 51//12
f 8//11 51//12 271//11
f 271//11 53//12 8//11
f 8//11 53//12 206//11
f 8//11 206//11 222//11
f 54//11 269//11 222//11
f 222//11 269//11 56//12
f 222//11 56//12 38//11
f 225//8 18//13 16//8
f 16//8 18//13 39//13
f 18//13 176//14 39//13
f 39//13 176//14 192//14
f 176//14 270//15 192//14
f 192//14 270//15 193//15
f 270//15 20//16 193//15
f 193//15 20//16 42//16
f 20//16 19//17 42//16
f 42//16 19//17 187//17
f 19//17 12//6 187//17
f 187//17 12//6 10//6
f 181//1 182//18 2//1
f 2//1 182//18 223//18
f 182//18 285//19 223//18
f 223//18 285//19 55//19
f 285//19 25//20 55//19
f 55//19 25//20 153//20
f 25//20 24//21 153//20
f 153//20 24//21 152//21
f 24//21 23//22 152//21
f 152//21 23//22 151//22
f 23//22 13//7 151//22
f 151//22 13//7 15//7
f 6//4 228//23 205//4
f 205//4 228//23 49//23
f 228//23 31//24 49//23
f 49//23 31//24 256//24
f 31//24 293//25 256//24
f 256//24 293//25 257//25
f 293//25 29//26 257//25
f 257//25 29//26 52//26
f 29//26 158//27 52//26
f 52//26 158//27 207//27
f 158//27 157//2 207//27
f 207//27 157//2 4//2
f 11//5 17//28 159//5
f 159//5 17//28 160//28
f 17//28 36//29 160//28
f 160//28 36//29 45//29
f 36//29 168//30 45//29
f 45//29 168//30 220//30
f 168//30 171//31 220//30
f 220//30 171//31 221//31
f 171//31 170//32 221//31
f 221//31 170//32 48//32
f 170//32 5//3 48//32
f 48//32 5//3 204//3
f 217//33 237//33 173//33
f 173//33 237//33 200//33
f 61//34 291//34 215//35
f 215//35 291//34 232//35
f 65//36 66//37 67//36
f 67//36 66//37 68//37
f 66//37 69//38 68//37
f 68//37 69//38 70//38
f 69//38 71//39 70//38
f 70//38 71//39 72//39
f 71//39 73//40 72//39
f 72//39 73//40 74//40
f 73//40 75//41 74//40
f 74//40 75//41 76//41
f 75//41 291//34 76//41
f 76//41 291//34 61//34
f 59//42 166//42 203//42
f 203//42 166//42 167//42
f 203//42 167//42 172//42
f 172//42 149//42 203//42
f 203//42 149//42 150//42
f 203//42 150//42 156//42
f 203//42 63//42 59//42
f 59//42 63//42 57//42
f 63//42 216//42 57//42
f 57//42 216//42 296//42
f 57//42 296//42 247//42
f 247//42 80//43 57//42
f 57//42 80//43 288//42
f 57//42 288//42 82//44
f 82//44 288//42 245//43
f 82//44 245//43 246//44
f 83//45 81//46 85//45
f 85//45 81//46 86//46
f 81//46 248//47 86//46
f 86//46 248//47 87//47
f 248//47 79//48 87//47
f 87//47 79//48 276//48
f 79//48 78//49 276//48
f 276//48 78//49 282//49
f 78//49 77//50 282//49
f 282//49 77//50 90//50
f 77//50 215//35 90//50
f 90//50 215//35 232//35
f 162//51 161//51 62//51
f 62//51 161//51 163//51
f 62//51 163//51 183//51
f 183//51 165//51 62//51
f 62//51 165//51 164//51
f 62//51 164//51 60//51
f 62//51 60//51 64//51
f 64//51 60//51 58//51
f 64//51 58//51 233//51
f 233//51 58//51 89//51
f 91//52 184//53 229//52
f 229//52 184//53 268//51
f 229//52 268//51 58//51
f 58//51 268//51 275//53
f 58//51 275//53 88//51
f 88//51 89//51 58//51
f 85//45 185//10 83//45
f 83//45 185//10 84//10
f 185//10 93//10 84//10
f 84//10 93//10 213//9
f 213//9 93//10 95//10
f 95//10 93//10 265//10
f 95//10 265//10 97//9
f 97//9 265//10 98//10
f 97//9 98//10 99//10
f 99//10 98//10 100//10
f 99//10 100//10 101//10
f 101//10 100//10 197//10
f 101//10 197//10 239//9
f 239//9 197//10 261//10
f 98//10 235//10 100//10
f 100//10 235//10 106//10
f 100//10 106//10 107//10
f 210//10 194//10 197//10
f 197//10 194//10 195//9
f 197//10 195//9 261//10
f 101//10 111//10 99//10
f 99//10 111//10 280//10
f 209//10 114//10 111//10
f 111//10 114//10 278//9
f 111//10 278//9 243//10
f 243//10 244//9 111//10
f 111//10 244//9 280//10
f 97//9 99//10 274//10
f 274//10 99//10 119//10
f 274//10 119//10 252//9
f 218//11 219//12 236//11
f 236//11 219//12 92//11
f 92//11 219//12 230//11
f 230//11 219//12 277//12
f 230//11 277//12 123//11
f 230//11 123//11 124//11
f 124//11 123//11 125//12
f 124//11 125//12 126//11
f 126//11 125//12 127//12
f 126//11 127//12 283//11
f 283//11 127//12 129//11
f 283//11 129//11 130//11
f 130//11 129//11 178//12
f 130//11 178//12 297//11
f 125//12 133//11 127//12
f 127//12 133//11 134//11
f 133//11 180//12 134//11
f 129//11 127//12 136//11
f 136//11 127//12 137//11
f 136//11 137//11 138//12
f 138//12 139//11 136//11
f 136//11 139//11 140//12
f 136//11 140//12 141//11
f 141//11 212//11 136//11
f 297//11 298//12 130//11
f 130//11 298//12 289//11
f 130//11 289//11 290//11
f 286//11 287//11 283//11
f 283//11 287//11 148//11
f 283//11 148//11 126//11
f 294//54 105//54 267//54
f 267//54 105//54 234//54
f 196//52 128//52 102//2
f 102//2 128//52 284//2
f 238//4 177//4 208//3
f 208//3 177//4 260//3
f 238//4 103//23 177//4
f 177//4 103//23 131//23
f 103//23 104//24 131//23
f 131//23 104//24 132//24
f 104//24 110//25 132//24
f 132//24 110//25 143//25
f 110//25 109//26 143//25
f 143//25 109//26 144//26
f 109//26 108//27 144//26
f 144//26 108//27 145//27
f 108//27 102//2 145//27
f 145//27 102//2 284//2
f 196//52 189//55 128//52
f 128//52 189//55 146//55
f 189//55 188//56 146//55
f 146//55 188//56 147//56
f 188//56 105//54 147//56
f 147//56 105//54 294//54
f 234//54 96//56 267//54
f 267//54 96//56 266//56
f 96//56 264//57 266//56
f 266//56 264//57 121//57
f 264//57 91//52 121//57
f 121//57 91//52 229//52
f 254//58 273//58 179//58
f 179//58 273//58 118//58
f 279//44 112//5 190//44
f 190//44 112//5 198//5
f 112//5 117//28 198//5
f 198//5 117//28 199//28
f 117//28 116//29 199//28
f 199//28 116//29 240//29
f 116//29 115//30 240//29
f 240//29 115//30 300//30
f 115//30 281//31 300//30
f 300//30 281//31 211//31
f 281//31 113//32 211//31
f 211//31 113//32 142//32
f 113//32 208//3 142//32
f 142//32 208//3 260//3
f 118//58 120//59 179//58
f 179//58 120//59 135//59
f 120//59 251//60 135//59
f 135//59 251//60 191//60
f 251//60 279//44 191//60
f 191//60 279//44 190//44
f 246//44 94//61 82//44
f 82//44 94//61 122//61
f 94//61 214//59 122//61
f 122//61 214//59 253//59
f 214//59 273//58 253//59
f 253//59 273//58 254//58
f 65//36 67//36 201//62
f 201//62 67//36 174//62
